<?xml version="1.0" encoding="UTF-8"?>
<svg id="Vrstva_2" data-name="Vrstva 2" xmlns="http://www.w3.org/2000/svg" viewBox="0 0 425.2 195.72">
  <defs>
    <style>
      .cls-1, .cls-2 {
        stroke-width: 0px;
      }

      .cls-2 {
        fill: #fd0;
      }
    </style>
  </defs>
  <g id="Vrstva_1-2" data-name="Vrstva 1">
    <g>
      <g>
        <g>
          <g>
            <polygon class="cls-1" points="122.77 138.85 122.77 32.87 112.25 32.87 112.25 17.98 149.48 17.98 149.48 32.87 138.96 32.87 138.96 138.85 122.77 138.85"/>
            <polygon class="cls-1" points="227.32 138.85 227.32 17.98 243.52 17.98 243.52 123.95 261.32 123.95 261.32 138.85 227.32 138.85"/>
            <path class="cls-1" d="m291.32,139.69c-14.77,0-24.32-9.14-24.32-23.29V17.98h16.2s0,98.42,0,98.42c0,5.26,2.88,8.15,8.12,8.15s7.99-2.9,7.99-8.15V17.98h16.2v98.42c0,14.15-9.5,23.29-24.19,23.29Z"/>
            <path class="cls-1" d="m383.83,138.85V38.64c0-5.74-4.22-6.6-6.74-6.6-4.47,0-6.74,2.22-6.74,6.6v100.21h-16.2V38.64c0-5.46-3.67-6.6-6.74-6.6s-6.74,1.15-6.74,6.6v100.21h-16.2V37.92c0-12.62,8.81-20.78,22.44-20.78,6.81,0,11.36,1.32,15.28,4.49,3.93-3.17,8.52-4.49,15.4-4.49,13.63,0,22.44,8.16,22.44,20.78v100.93h-16.2Z"/>
            <rect class="cls-1" x="409" y="17.98" width="16.2" height="120.87"/>
          </g>
          <path class="cls-1" d="m183.62,17.98v51.8c0,1.49-.68,2.9-1.84,3.84l-7.14,5.74V17.98h-16.2v120.87h16.2v-37.04l7.14,5.74c1.16.93,1.84,2.35,1.84,3.84v27.46h16.2v-30.76c0-4.35-1.97-8.47-5.36-11.2l-7.84-6.31,7.84-6.31c3.39-2.73,5.36-6.85,5.36-11.2V17.98h-16.2Z"/>
        </g>
        <g>
          <path class="cls-1" d="m122.77,156.62h7.25c4.47,0,7.25,2.57,7.25,6.59v14.44c0,4.02-2.78,6.59-7.25,6.59h-7.25v-27.62Zm7.25,25.02c2.66,0,4.21-1.5,4.21-3.91v-14.59c0-2.41-1.56-3.91-4.21-3.91h-4.21v22.41h4.21Z"/>
          <path class="cls-1" d="m141.82,178.69v-1.26c0-3.83,2.4-5.82,5.98-5.82,1.52,0,2.87.42,3.79,1.22v-4.94c0-1.92-1.22-3.11-3.24-3.11s-3.25,1.19-3.25,3.11v2.03h-3.03v-1.95c0-3.6,2.44-5.83,6.28-5.83s6.28,2.22,6.28,5.83v10.72c0,3.6-2.49,5.83-6.41,5.83s-6.41-2.22-6.41-5.83Zm9.78.12v-1.46c0-1.99-1.26-3.1-3.37-3.1s-3.37,1.19-3.37,3.1v1.46c0,1.91,1.27,3.1,3.37,3.1s3.37-1.19,3.37-3.1Zm-4-18.7l-1.98-1.38,3.29-3.91,1.98,1.42-3.29,3.87Z"/>
          <path class="cls-1" d="m159.1,167.54c0-3.33,2.4-5.4,6.11-5.4,1.94,0,3.71.65,4.76,1.99,1.05-1.34,2.91-1.99,4.97-1.99,3.67,0,6.11,2.07,6.11,5.4v16.7h-3.03v-16.59c0-1.84-1.26-2.95-3.16-2.95s-3.16,1.07-3.16,2.99v16.55h-3.25v-16.55c0-1.88-1.26-2.99-3.16-2.99s-3.16,1.11-3.16,2.95v16.59h-3.03v-16.7Z"/>
          <path class="cls-1" d="m185.53,178.69v-10.72c0-3.6,2.49-5.83,6.41-5.83s6.41,2.22,6.41,5.83v6.59h-9.78v4.29c0,1.91,1.27,3.1,3.37,3.1s3.37-1.19,3.37-3.1v-2.11h3.04v1.95c0,3.6-2.53,5.83-6.41,5.83s-6.41-2.22-6.41-5.83Zm9.78-6.59v-4.25c0-1.95-1.31-3.14-3.37-3.14s-3.37,1.19-3.37,3.14v4.25h6.74Z"/>
          <path class="cls-1" d="m211.7,165.01h-4v-2.6h4v-4.64h3.03v4.64h4v2.6h-4v19.23h-3.03v-19.23Z"/>
          <path class="cls-1" d="m221.14,178.69v-10.72c0-3.6,2.49-5.83,6.41-5.83s6.41,2.22,6.41,5.83v10.72c0,3.6-2.53,5.83-6.41,5.83s-6.41-2.22-6.41-5.83Zm9.78.12v-10.92c0-1.92-1.31-3.11-3.37-3.11s-3.37,1.19-3.37,3.11v10.92c0,1.91,1.27,3.1,3.37,3.1s3.37-1.19,3.37-3.1Z"/>
          <path class="cls-1" d="m238.42,167.54c0-3.33,2.4-5.4,6.11-5.4,1.94,0,3.71.65,4.76,1.99,1.05-1.34,2.91-1.99,4.97-1.99,3.67,0,6.11,2.07,6.11,5.4v16.7h-3.04v-16.59c0-1.84-1.26-2.95-3.16-2.95s-3.16,1.07-3.16,2.99v16.55h-3.24v-16.55c0-1.88-1.27-2.99-3.16-2.99s-3.16,1.11-3.16,2.95v16.59h-3.04v-16.7Z"/>
          <path class="cls-1" d="m264.93,178.69v-16.28h3.04v16.36c0,1.95,1.26,3.14,3.37,3.14s3.37-1.19,3.37-3.14v-16.36h3.04v16.28c0,3.6-2.53,5.83-6.41,5.83s-6.41-2.22-6.41-5.83Z"/>
          <path class="cls-1" d="m287.4,162.41h3.08l3.04,13.14c.29,1.27.8,4.18.84,4.4.04-.34.55-3.14.84-4.4l3.03-13.14h3.08l-5.39,21.84h-3.08l-5.44-21.84Z"/>
          <path class="cls-1" d="m304.21,178.69v-10.72c0-3.6,2.49-5.83,6.41-5.83s6.41,2.22,6.41,5.83v10.72c0,3.6-2.53,5.83-6.41,5.83s-6.41-2.22-6.41-5.83Zm9.78.12v-10.92c0-1.92-1.31-3.11-3.37-3.11s-3.37,1.19-3.37,3.11v10.92c0,1.91,1.27,3.1,3.37,3.1s3.37-1.19,3.37-3.1Z"/>
          <path class="cls-1" d="m321.58,156.62h3.03v27.62h-3.03v-27.62Z"/>
          <path class="cls-1" d="m331.48,165.01h-4v-2.6h4v-4.64h3.03v4.64h4v2.6h-4v19.23h-3.03v-19.23Z"/>
          <path class="cls-1" d="m354.12,190.03h-3.04v-6.74c-.93.8-2.27,1.23-3.79,1.23-3.58,0-5.99-1.99-5.99-5.83v-16.28h3.04v16.36c0,1.91,1.31,3.1,3.37,3.1s3.37-1.11,3.37-3.1v-16.36h3.04v27.62Z"/>
          <path class="cls-1" d="m358.05,182.44c0-1.14.88-2.02,1.94-2.02,1.14,0,2.02.88,2.02,1.98s-.88,1.98-1.98,1.98-1.98-.88-1.98-1.94Z"/>
        </g>
      </g>
      <path class="cls-2" d="m78.21,73.29h0c-2.46-.93-4.97-1.35-7.45-1.36l.02-.03h-14.93l16.22-42.91c4.18-11.06-1.4-23.42-12.46-27.6-11.06-4.18-23.42,1.4-27.6,12.46L1.39,94.83c-4.18,11.06,1.4,23.42,12.46,27.6h0c2.46.93,4.97,1.35,7.45,1.36l-.02.03h14.93l-16.22,42.91c-4.18,11.06,1.4,23.42,12.46,27.6h0c11.06,4.18,23.42-1.4,27.6-12.46l30.61-80.98c4.18-11.06-1.4-23.42-12.46-27.6Z"/>
    </g>
  </g>
</svg>