<?xml version="1.0" encoding="UTF-8"?>
<svg id="Vrstva_2" data-name="Vrstva 2" xmlns="http://www.w3.org/2000/svg" viewBox="0 0 92.06 195.72">
  <defs>
    <style>
      .cls-1 {
        stroke-width: 0px;
      }
    </style>
  </defs>
  <g id="Vrstva_1-2" data-name="Vrstva 1">
    <path class="cls-1" d="m78.21,73.29h0c-2.46-.93-4.97-1.35-7.45-1.36l.02-.03h-14.93l16.22-42.91c4.18-11.06-1.4-23.42-12.46-27.6-11.06-4.18-23.42,1.4-27.6,12.46L1.39,94.83c-4.18,11.06,1.4,23.42,12.46,27.6h0c2.46.93,4.97,1.35,7.45,1.36l-.02.03h14.93l-16.22,42.91c-4.18,11.06,1.4,23.42,12.46,27.6h0c11.06,4.18,23.42-1.4,27.6-12.46l30.61-80.98c4.18-11.06-1.4-23.42-12.46-27.6Z"/>
  </g>
</svg>