<?xml version="1.0" encoding="UTF-8"?>
<svg id="Vrstva_2" data-name="Vrstva 2" xmlns="http://www.w3.org/2000/svg" viewBox="0 0 60 60">
  <defs>
    <style>
      .cls-1 {
        fill: #ffd400;
      }

      .cls-1, .cls-2 {
        stroke-width: 0px;
      }
    </style>
  </defs>
  <g id="Vrstva_1-2" data-name="Vrstva 1">
    <g>
      <g id="Group_70" data-name="Group 70">
        <g id="Group_69" data-name="Group 69">
          <g id="Path_39" data-name="Path 39">
            <path class="cls-1" d="m30,60C13.43,60,0,46.57,0,30S13.43,0,30,0s30,13.43,30,30c-.02,16.56-13.44,29.98-30,30m0-56.27C15.49,3.73,3.74,15.49,3.74,30s11.76,26.26,26.26,26.26,26.26-11.76,26.26-26.26h0c-.02-14.5-11.77-26.25-26.26-26.27"/>
          </g>
        </g>
      </g>
      <path class="cls-2" d="m30,48.38c-10.13,0-18.38-8.24-18.38-18.38S19.87,11.62,30,11.62s18.38,8.24,18.38,18.38-8.24,18.38-18.38,18.38Zm0-32.81c-7.96,0-14.44,6.48-14.44,14.44s6.48,14.44,14.44,14.44,14.44-6.48,14.44-14.44-6.48-14.44-14.44-14.44Z"/>
      <path class="cls-2" d="m30,48.38c-.48,0-.96-.17-1.33-.52-6.43-5.93-9.54-12.23-9.25-18.74.46-10.12,9.02-16.8,9.38-17.08.86-.66,2.1-.5,2.76.36.66.86.5,2.1-.36,2.76-.12.09-7.49,5.92-7.85,14.16-.23,5.28,2.46,10.55,7.98,15.64.8.74.85,1.98.11,2.78-.39.42-.92.63-1.45.63Z"/>
      <path class="cls-2" d="m30,48.38c-.27,0-.54-.05-.79-.17-.72-.31-1.18-1.02-1.18-1.8V13.59c0-.76.44-1.45,1.12-1.78.69-.33,1.5-.23,2.09.25.36.29,8.8,7.25,9.13,17.47.21,6.43-2.83,12.6-9.03,18.32-.37.34-.85.52-1.34.52Zm1.97-29.84v22.92c3.08-3.83,4.58-7.77,4.46-11.77-.14-4.62-2.42-8.54-4.46-11.15Z"/>
    </g>
  </g>
</svg>