<?xml version="1.0" encoding="UTF-8"?>
<svg id="Vrstva_2" data-name="Vrstva 2" xmlns="http://www.w3.org/2000/svg" viewBox="0 0 60 60">
  <defs>
    <style>
      .cls-1 {
        fill: #ffd400;
      }

      .cls-1, .cls-2 {
        stroke-width: 0px;
      }
    </style>
  </defs>
  <g id="Vrstva_1-2" data-name="Vrstva 1">
    <g id="Group_70" data-name="Group 70">
      <g id="Group_69" data-name="Group 69">
        <g id="Path_39" data-name="Path 39">
          <path class="cls-1" d="m30,60C13.43,60,0,46.57,0,30S13.43,0,30,0s30,13.43,30,30c-.02,16.56-13.44,29.98-30,30m0-56.27C15.49,3.73,3.74,15.49,3.74,30s11.76,26.26,26.26,26.26,26.26-11.76,26.26-26.26h0c-.02-14.5-11.77-26.25-26.26-26.27"/>
        </g>
        <g id="Path_40" data-name="Path 40">
          <path class="cls-2" d="m38.23,48.91h-16.46c-3.33,0-6.02-2.7-6.03-6.03v-25.75c0-3.33,2.7-6.02,6.03-6.03h16.46c3.33,0,6.02,2.7,6.03,6.03v25.75c0,3.33-2.7,6.02-6.03,6.03M21.77,15.21c-1.06,0-1.92.86-1.92,1.92v25.75c0,1.06.86,1.92,1.92,1.92h16.46c1.06,0,1.92-.86,1.92-1.92v-25.75c0-1.06-.86-1.92-1.92-1.92h-16.46Z"/>
        </g>
        <g id="Path_41" data-name="Path 41">
          <path class="cls-2" d="m30.46,21.01h-.92c-1.08-.06-1.91-.98-1.86-2.06-.05-1.08.78-2,1.86-2.05h.92c1.08.06,1.91.97,1.86,2.05.05,1.08-.78,2-1.86,2.05"/>
        </g>
        <g id="Path_42" data-name="Path 42">
          <path class="cls-2" d="m36.39,21.01h-.92c-1.08-.06-1.91-.98-1.86-2.06-.05-1.08.78-2,1.86-2.05h.92c1.08.06,1.91.98,1.86,2.05.05,1.08-.78,2-1.86,2.05"/>
        </g>
        <g id="Path_43" data-name="Path 43">
          <path class="cls-2" d="m24.54,26.53h-.92c-1.08-.06-1.91-.97-1.86-2.05-.05-1.08.78-2,1.86-2.05h.92c1.08.05,1.92.97,1.87,2.05.05,1.08-.78,2-1.86,2.05"/>
        </g>
        <g id="Path_44" data-name="Path 44">
          <path class="cls-2" d="m30.46,26.53h-.92c-1.08-.06-1.91-.97-1.86-2.05-.05-1.08.78-2,1.86-2.05h.92c1.08.06,1.91.97,1.86,2.05.05,1.08-.78,2-1.86,2.05"/>
        </g>
        <g id="Path_45" data-name="Path 45">
          <path class="cls-2" d="m36.39,26.53h-.92c-1.08-.06-1.91-.98-1.86-2.05-.05-1.08.78-2,1.86-2.05h.92c1.08.06,1.91.97,1.86,2.05.05,1.08-.78,2-1.86,2.05"/>
        </g>
        <g id="Path_46" data-name="Path 46">
          <path class="cls-2" d="m24.54,32.05h-.92c-1.08-.06-1.91-.97-1.86-2.05-.05-1.08.78-2,1.86-2.05h.92c1.08.05,1.92.97,1.87,2.05.05,1.08-.78,2-1.86,2.05"/>
        </g>
        <g id="Path_47" data-name="Path 47">
          <path class="cls-2" d="m30.46,32.05h-.92c-1.08-.06-1.91-.97-1.86-2.05-.05-1.08.78-2,1.86-2.05h.92c1.08.06,1.91.97,1.86,2.05.05,1.08-.78,2-1.86,2.05"/>
        </g>
        <g id="Path_48" data-name="Path 48">
          <path class="cls-2" d="m36.39,32.05h-.92c-1.08-.06-1.91-.98-1.86-2.05-.05-1.08.78-2,1.86-2.05h.92c1.08.06,1.91.97,1.86,2.05.05,1.08-.78,2-1.86,2.05"/>
        </g>
        <g id="Path_49" data-name="Path 49">
          <path class="cls-2" d="m24.54,37.58h-.92c-1.13-.11-1.96-1.12-1.85-2.26.1-.98.87-1.75,1.85-1.85h.92c1.13.11,1.96,1.12,1.85,2.26-.1.98-.87,1.75-1.85,1.85"/>
        </g>
        <g id="Path_50" data-name="Path 50">
          <path class="cls-2" d="m30.46,37.58h-.92c-1.13-.11-1.96-1.12-1.85-2.26.1-.98.87-1.75,1.85-1.85h.92c1.13.11,1.96,1.12,1.85,2.26-.1.98-.87,1.75-1.85,1.85"/>
        </g>
        <g id="Path_51" data-name="Path 51">
          <path class="cls-2" d="m36.39,37.58h-.92c-1.13-.11-1.96-1.12-1.85-2.26.1-.98.87-1.75,1.85-1.85h.92c1.13.11,1.96,1.12,1.85,2.26-.1.98-.87,1.75-1.85,1.85"/>
        </g>
        <g id="Path_52" data-name="Path 52">
          <path class="cls-2" d="m24.54,43.1h-.92c-1.13-.11-1.96-1.12-1.85-2.26.1-.98.87-1.75,1.85-1.85h.92c1.13.11,1.96,1.12,1.85,2.26-.1.98-.87,1.75-1.85,1.85"/>
        </g>
        <g id="Path_53" data-name="Path 53">
          <path class="cls-2" d="m30.46,43.1h-.92c-1.13-.11-1.96-1.12-1.85-2.26.1-.98.87-1.75,1.85-1.85h.92c1.13.11,1.96,1.12,1.85,2.26-.1.98-.87,1.75-1.85,1.85"/>
        </g>
      </g>
    </g>
  </g>
</svg>