<?xml version="1.0" encoding="UTF-8"?>
<svg id="Vrstva_2" data-name="Vrstva 2" xmlns="http://www.w3.org/2000/svg" viewBox="0 0 32.13 32.13">
  <defs>
    <style>
      .cls-1 {
        stroke-width: 0px;
      }
    </style>
  </defs>
  <g id="Vrstva_1-2" data-name="Vrstva 1">
    <g>
      <path class="cls-1" d="m16.07,32.13C7.21,32.13,0,24.92,0,16.07S7.21,0,16.07,0s16.07,7.21,16.07,16.07-7.21,16.07-16.07,16.07Zm0-30.13c-7.76,0-14.07,6.31-14.07,14.07s6.31,14.07,14.07,14.07,14.07-6.31,14.07-14.07S23.82,2,16.07,2Z"/>
      <path class="cls-1" d="m18.83,11.16h1.4v-3.05h-2.11c-2.99,0-4.41,1.78-4.41,4.31v2.4h-2.34v2.9h2.34v7.37h3.51v-7.37h2.34l.66-2.9h-3.01v-1.98c0-.81.44-1.68,1.61-1.68Z"/>
    </g>
  </g>
</svg>