<?xml version="1.0" encoding="UTF-8"?>
<svg id="Vrstva_2" data-name="Vrstva 2" xmlns="http://www.w3.org/2000/svg" viewBox="0 0 60 60">
  <defs>
    <style>
      .cls-1 {
        fill: #ffd400;
      }

      .cls-1, .cls-2 {
        stroke-width: 0px;
      }
    </style>
  </defs>
  <g id="Vrstva_1-2" data-name="Vrstva 1">
    <g>
      <g id="Group_70" data-name="Group 70">
        <g id="Group_69" data-name="Group 69">
          <g id="Path_39" data-name="Path 39">
            <path class="cls-1" d="m30,60C13.43,60,0,46.57,0,30S13.43,0,30,0s30,13.43,30,30c-.02,16.56-13.44,29.98-30,30m0-56.27C15.49,3.73,3.74,15.49,3.74,30s11.76,26.26,26.26,26.26,26.26-11.76,26.26-26.26h0c-.02-14.5-11.77-26.25-26.26-26.27"/>
          </g>
        </g>
      </g>
      <g>
        <path class="cls-2" d="m30.16,44.14c-.17,0-.17,0-.34,0-1.59,0-13.06-.13-18.47-3.82-.48-.33-.78-.85-.83-1.43-.04-.49-.3-4.61,1.6-7.14.76-5.33,3.01-17.63,17.89-17.63s17.13,12.3,17.89,17.63c1.9,2.53,1.64,6.65,1.6,7.14-.05.58-.35,1.1-.83,1.43-5.41,3.69-16.88,3.82-18.5,3.82Zm-.17-3.83c3.08.03,11.45-.43,15.71-2.67-.03-1.37-.31-3.05-.99-3.74-.29-.29-.47-.67-.53-1.07-1.03-7.36-3.52-14.88-14.18-14.88s-13.15,7.52-14.18,14.88c-.06.4-.24.78-.53,1.07-.72.73-.95,2.49-.99,3.74,4.26,2.25,12.62,2.72,15.68,2.67Zm17.6-1.58h0,0Z"/>
        <path class="cls-2" d="m27.04,31.2c-.92,0-1.73-.67-1.89-1.61l-2.2-13.62c-.17-1.04.54-2.02,1.58-2.19,1.04-.17,2.02.54,2.19,1.58l2.2,13.62c.17,1.04-.54,2.02-1.58,2.19-.1.02-.21.02-.31.02Z"/>
        <path class="cls-2" d="m32.96,31.2c-.1,0-.2,0-.31-.02-1.04-.17-1.75-1.15-1.58-2.19l2.2-13.62c.17-1.04,1.16-1.75,2.19-1.58,1.04.17,1.75,1.15,1.58,2.19l-2.2,13.62c-.15.94-.96,1.61-1.89,1.61Z"/>
      </g>
    </g>
  </g>
</svg>