<?xml version="1.0" encoding="UTF-8"?>
<svg id="Vrstva_2" data-name="Vrstva 2" xmlns="http://www.w3.org/2000/svg" viewBox="0 0 32.13 32.13">
  <defs>
    <style>
      .cls-1 {
        stroke-width: 0px;
      }
    </style>
  </defs>
  <g id="Vrstva_1-2" data-name="Vrstva 1">
    <g>
      <path class="cls-1" d="m16.07,32.13C7.21,32.13,0,24.92,0,16.07S7.21,0,16.07,0s16.07,7.21,16.07,16.07-7.21,16.07-16.07,16.07Zm0-30.13c-7.76,0-14.07,6.31-14.07,14.07s6.31,14.07,14.07,14.07,14.07-6.31,14.07-14.07S23.82,2,16.07,2Z"/>
      <path class="cls-1" d="m19.48,6.69h-6.83c-1.41,0-2.57,1.16-2.57,2.57v13.62c0,1.41,1.16,2.57,2.57,2.57h6.83c1.41,0,2.57-1.16,2.57-2.57v-13.62c0-1.41-1.16-2.57-2.57-2.57Zm-5.11,16.31c0,.17-.14.31-.31.31h-1.83c-.17,0-.31-.14-.31-.31v-.74c0-.17.14-.31.31-.31h1.83c.17,0,.31.14.31.31v.74Zm-.75-4.56c0-1.35,1.09-2.44,2.44-2.44s2.44,1.09,2.44,2.44-1.09,2.44-2.44,2.44-2.44-1.09-2.44-2.44Zm3.67,4.56c0,.17-.14.31-.31.31h-1.83c-.17,0-.31-.14-.31-.31v-.74c0-.17.14-.31.31-.31h1.83c.17,0,.31.14.31.31v.74Zm2.92,0c0,.17-.14.31-.31.31h-1.83c-.17,0-.31-.14-.31-.31v-.74c0-.17.14-.31.31-.31h1.83c.17,0,.31.14.31.31v.74Zm0-9.28c0,.67-.55,1.22-1.22,1.22h-5.86c-.67,0-1.22-.55-1.22-1.22v-3.68c0-.67.55-1.22,1.22-1.22h5.86c.67,0,1.22.55,1.22,1.22v3.68Z"/>
    </g>
  </g>
</svg>