<?xml version="1.0" encoding="UTF-8"?>
<svg id="Vrstva_2" data-name="Vrstva 2" xmlns="http://www.w3.org/2000/svg" viewBox="0 0 60 60">
  <defs>
    <style>
      .cls-1 {
        fill: #ffd400;
      }

      .cls-1, .cls-2 {
        stroke-width: 0px;
      }
    </style>
  </defs>
  <g id="Vrstva_1-2" data-name="Vrstva 1">
    <g>
      <g id="Group_70" data-name="Group 70">
        <g id="Group_69" data-name="Group 69">
          <g id="Path_39" data-name="Path 39">
            <path class="cls-1" d="m30,60C13.43,60,0,46.57,0,30S13.43,0,30,0s30,13.43,30,30c-.02,16.56-13.44,29.98-30,30m0-56.27C15.49,3.73,3.74,15.49,3.74,30s11.76,26.26,26.26,26.26,26.26-11.76,26.26-26.26h0c-.02-14.5-11.77-26.25-26.26-26.27"/>
          </g>
        </g>
      </g>
      <path class="cls-2" d="m25.92,43.26h-.02c-.84,0-1.64-.36-2.21-.99l-9.01-9.99c-1.11-1.23-1.01-3.13.22-4.24,1.23-1.11,3.13-1.01,4.24.22l6.81,7.55,15.56-16.83c1.12-1.22,3.02-1.29,4.24-.17,1.22,1.12,1.29,3.02.17,4.24l-17.79,19.24c-.57.61-1.37.96-2.2.96Z"/>
    </g>
  </g>
</svg>