<?xml version="1.0" encoding="UTF-8"?>
<svg id="Vrstva_2" data-name="Vrstva 2" xmlns="http://www.w3.org/2000/svg" viewBox="0 0 60 60">
  <defs>
    <style>
      .cls-1 {
        fill: #ffd400;
      }

      .cls-1, .cls-2 {
        stroke-width: 0px;
      }
    </style>
  </defs>
  <g id="Vrstva_1-2" data-name="Vrstva 1">
    <g>
      <g id="Group_70" data-name="Group 70">
        <g id="Group_69" data-name="Group 69">
          <g id="Path_39" data-name="Path 39">
            <path class="cls-1" d="m30,60C13.43,60,0,46.57,0,30S13.43,0,30,0s30,13.43,30,30c-.02,16.56-13.44,29.98-30,30m0-56.27C15.49,3.73,3.74,15.49,3.74,30s11.76,26.26,26.26,26.26,26.26-11.76,26.26-26.26h0c-.02-14.5-11.77-26.25-26.26-26.27"/>
          </g>
        </g>
      </g>
      <g>
        <path class="cls-2" d="m16.19,24.91c0-.7-.3-1.23-1.16-1.23s-1.16.54-1.16,1.23v1.88c0,.6-.35.95-.95.95h-1.35c-.6,0-.95-.35-.95-.95v-1.88c0-2.54,1.42-3.7,4.42-3.7s4.42,1.16,4.42,3.7v1.05c0,1.16-.12,2.16-.93,3.3l-4.21,5.98h4.19c.6,0,.95.35.95.95v1.02c0,.6-.35.95-.95.95h-6.93c-.6,0-.95-.35-.95-.95v-1.26c0-.4.02-.54.28-.91l4.79-7.1c.37-.54.51-.98.51-1.68v-1.37Z"/>
        <path class="cls-2" d="m28.55,32.24h.88c.6,0,.95.35.95.95v1.02c0,.6-.35.95-.95.95h-.88v2.05c0,.6-.35.95-.95.95h-1.35c-.6,0-.95-.35-.95-.95v-2.05h-3.96c-.6,0-.95-.35-.95-.95v-1.19c0-.3.05-.6.16-.98l3.05-10.1c.12-.4.44-.63.93-.63h1.37c.95,0,1.05.88.88,1.37l-3.12,9.54h1.63v-2.84c0-.6.35-.95.95-.95h1.35c.6,0,.95.35.95.95v2.84Z"/>
        <path class="cls-2" d="m36.74,20.36c.12-.4.47-.6.91-.6h.67c.91,0,1.05.79.91,1.3l-5.44,20.33c-.12.4-.47.6-.91.6h-.67c-.91,0-1.05-.79-.91-1.3l5.44-20.33Z"/>
        <path class="cls-2" d="m45.76,37.55c-.12.4-.44.63-.93.63h-1.37c-.95,0-1.05-.88-.88-1.37l4.09-12.54h-4.61c-.6,0-.95-.35-.95-.95v-1.02c0-.6.35-.95.95-.95h6.93c.6,0,.95.35.95.95v1.19c0,.3-.05.6-.16.98l-4.02,13.1Z"/>
      </g>
    </g>
  </g>
</svg>