<?xml version="1.0" encoding="UTF-8"?>
<svg id="Vrstva_2" data-name="Vrstva 2" xmlns="http://www.w3.org/2000/svg" viewBox="0 0 32.13 32.13">
  <defs>
    <style>
      .cls-1 {
        stroke-width: 0px;
      }
    </style>
  </defs>
  <g id="Vrstva_1-2" data-name="Vrstva 1">
    <g>
      <path class="cls-1" d="m16.07,32.13C7.21,32.13,0,24.92,0,16.07S7.21,0,16.07,0s16.07,7.21,16.07,16.07-7.21,16.07-16.07,16.07Zm0-30.13c-7.76,0-14.07,6.31-14.07,14.07s6.31,14.07,14.07,14.07,14.07-6.31,14.07-14.07S23.82,2,16.07,2Z"/>
      <path class="cls-1" d="m20.47,26.19h-8.81c-1.78,0-3.23-1.45-3.23-3.23v-13.79c0-1.78,1.45-3.23,3.23-3.23h8.81c1.78,0,3.23,1.45,3.23,3.23v13.79c0,1.78-1.45,3.23-3.23,3.23ZM11.66,8.14c-.57,0-1.03.46-1.03,1.03v13.79c0,.57.46,1.03,1.03,1.03h8.81c.57,0,1.03-.46,1.03-1.03v-13.79c0-.57-.46-1.03-1.03-1.03h-8.81Z"/>
      <g>
        <path class="cls-1" d="m17.74,12.56h-4.92c-.61,0-1.1-.49-1.1-1.1s.49-1.1,1.1-1.1h4.92c.61,0,1.1.49,1.1,1.1s-.49,1.1-1.1,1.1Z"/>
        <path class="cls-1" d="m19.3,15.63h-6.48c-.61,0-1.1-.49-1.1-1.1s.49-1.1,1.1-1.1h6.48c.61,0,1.1.49,1.1,1.1s-.49,1.1-1.1,1.1Z"/>
        <path class="cls-1" d="m19.3,21.77h-6.48c-.61,0-1.1-.49-1.1-1.1s.49-1.1,1.1-1.1h6.48c.61,0,1.1.49,1.1,1.1s-.49,1.1-1.1,1.1Z"/>
        <path class="cls-1" d="m14.06,18.7h-1.23c-.61,0-1.1-.49-1.1-1.1s.49-1.1,1.1-1.1h1.23c.61,0,1.1.49,1.1,1.1s-.49,1.1-1.1,1.1Z"/>
        <path class="cls-1" d="m19.3,18.7h-2.46c-.61,0-1.1-.49-1.1-1.1s.49-1.1,1.1-1.1h2.46c.61,0,1.1.49,1.1,1.1s-.49,1.1-1.1,1.1Z"/>
      </g>
    </g>
  </g>
</svg>