<?xml version="1.0" encoding="UTF-8"?>
<svg id="Vrstva_2" data-name="Vrstva 2" xmlns="http://www.w3.org/2000/svg" viewBox="0 0 60 60">
  <defs>
    <style>
      .cls-1 {
        fill: #ffd400;
      }

      .cls-1, .cls-2 {
        stroke-width: 0px;
      }
    </style>
  </defs>
  <g id="Vrstva_1-2" data-name="Vrstva 1">
    <g>
      <g id="Group_70" data-name="Group 70">
        <g id="Group_69" data-name="Group 69">
          <g id="Path_39" data-name="Path 39">
            <path class="cls-1" d="m30,60C13.43,60,0,46.57,0,30S13.43,0,30,0s30,13.43,30,30c-.02,16.56-13.44,29.98-30,30m0-56.27C15.49,3.73,3.74,15.49,3.74,30s11.76,26.26,26.26,26.26,26.26-11.76,26.26-26.26h0c-.02-14.5-11.77-26.25-26.26-26.27"/>
          </g>
        </g>
      </g>
      <g>
        <path class="cls-2" d="m30,51.73c-.37,0-.74-.1-1.06-.31l-7.62-4.85c-.57-.36-.91-.99-.91-1.66v-6.67c-1.96-1.52-6.21-5.64-6.21-12.76,0-8.93,6.94-15.93,15.8-15.93,8.86,0,15.8,7,15.8,15.93,0,7.12-4.25,11.24-6.21,12.76v1.52c0,1.09-.88,1.97-1.97,1.97s-1.97-.88-1.97-1.97v-2.54c0-.69.37-1.34.96-1.69.21-.13,5.25-3.28,5.25-10.04s-5.21-11.99-11.86-11.99c-6.65,0-11.86,5.27-11.86,11.99s5.04,9.92,5.26,10.05c.59.36.95,1,.95,1.69v6.61l5.64,3.59,5.5-3.52c.92-.59,2.14-.32,2.72.6.59.92.32,2.13-.6,2.72l-6.56,4.19c-.32.21-.69.31-1.06.31Z"/>
        <path class="cls-2" d="m33.15,25.46h0c-.24-.09-.49-.13-.73-.13h0s-1.46,0-1.46,0l1.59-4.2c.41-1.08-.14-2.29-1.22-2.7-1.08-.41-2.29.14-2.7,1.22l-3,7.93c-.41,1.08.14,2.29,1.22,2.7h0c.24.09.49.13.73.13h0s1.46,0,1.46,0l-1.59,4.2c-.41,1.08.14,2.29,1.22,2.7h0c1.08.41,2.29-.14,2.7-1.22l3-7.93c.41-1.08-.14-2.29-1.22-2.7Z"/>
      </g>
    </g>
  </g>
</svg>