<?xml version="1.0" encoding="UTF-8"?>
<svg id="Vrstva_2" data-name="Vrstva 2" xmlns="http://www.w3.org/2000/svg" viewBox="0 0 32.13 32.13">
  <defs>
    <style>
      .cls-1 {
        stroke-width: 0px;
      }
    </style>
  </defs>
  <g id="Vrstva_1-2" data-name="Vrstva 1">
    <g>
      <path class="cls-1" d="m16.07,32.13C7.21,32.13,0,24.92,0,16.07S7.21,0,16.07,0s16.07,7.21,16.07,16.07-7.21,16.07-16.07,16.07Zm0-30.13c-7.76,0-14.07,6.31-14.07,14.07s6.31,14.07,14.07,14.07,14.07-6.31,14.07-14.07S23.82,2,16.07,2Z"/>
      <g>
        <path class="cls-1" d="m12.55,25.79c-.61,0-1.1-.49-1.1-1.1v-6.19l-2.69-1.95c-.29-.21-.46-.54-.46-.89v-6.13c0-.61.49-1.1,1.1-1.1s1.1.49,1.1,1.1v5.57l2.69,1.95c.29.21.46.54.46.89v6.76c0,.61-.49,1.1-1.1,1.1Z"/>
        <path class="cls-1" d="m19.58,25.79c-.61,0-1.1-.49-1.1-1.1v-6.76c0-.35.17-.68.46-.89l2.69-1.95v-5.57c0-.61.49-1.1,1.1-1.1s1.1.49,1.1,1.1v6.13c0,.35-.17.68-.46.89l-2.69,1.95v6.19c0,.61-.49,1.1-1.1,1.1Z"/>
        <path class="cls-1" d="m16.07,25.79c-.61,0-1.1-.49-1.1-1.1v-15.16c0-.61.49-1.1,1.1-1.1s1.1.49,1.1,1.1v15.16c0,.61-.49,1.1-1.1,1.1Z"/>
      </g>
    </g>
  </g>
</svg>