<?xml version="1.0" encoding="UTF-8"?>
<svg id="Vrstva_2" data-name="Vrstva 2" xmlns="http://www.w3.org/2000/svg" viewBox="0 0 32.13 32.13">
  <defs>
    <style>
      .cls-1 {
        stroke-width: 0px;
      }
    </style>
  </defs>
  <g id="Vrstva_1-2" data-name="Vrstva 1">
    <g>
      <path class="cls-1" d="m16.07,32.13C7.21,32.13,0,24.92,0,16.07S7.21,0,16.07,0s16.07,7.21,16.07,16.07-7.21,16.07-16.07,16.07Zm0-30.13c-7.76,0-14.07,6.31-14.07,14.07s6.31,14.07,14.07,14.07,14.07-6.31,14.07-14.07S23.82,2,16.07,2Z"/>
      <g>
        <path class="cls-1" d="m7.63,12.18c.15-.77.29-1.55.71-2.23.96-1.56,2.46-2.16,4.19-2.21,2.36-.06,4.72-.06,7.07,0,1.6.04,3.02.57,4,1.95.63.89.86,1.91.88,2.97.03,2.26.05,4.53,0,6.8-.04,1.82-.68,3.38-2.38,4.31-.79.43-1.65.61-2.54.62-2.33.03-4.65.05-6.98,0-1.75-.04-3.26-.63-4.23-2.21-.42-.69-.56-1.46-.71-2.23v-7.77Zm8.44-2.84c-1.16,0-2.31-.02-3.47,0-1.81.04-2.91.89-3.24,2.44-.07.33-.12.67-.12,1.01-.01,2.19-.04,4.38,0,6.57.04,2.18,1.14,3.34,3.24,3.42,2.37.09,4.75.08,7.12,0,1.75-.06,2.79-.9,3.12-2.41.06-.27.12-.55.12-.82.01-2.49.15-4.99-.08-7.48-.13-1.48-1.12-2.44-2.59-2.64-1.37-.19-2.74-.05-4.11-.08Z"/>
        <path class="cls-1" d="m20.42,16.1c0,2.35-1.96,4.28-4.35,4.31-2.4.03-4.4-1.95-4.39-4.37,0-2.37,2.03-4.36,4.4-4.31,2.43.05,4.35,1.98,4.34,4.37Zm-1.62-.02c0-1.5-1.23-2.72-2.74-2.73-1.5,0-2.75,1.22-2.76,2.72,0,1.5,1.23,2.72,2.74,2.73,1.5,0,2.75-1.22,2.76-2.72Z"/>
        <path class="cls-1" d="m20.54,10.59c.58,0,1.07.47,1.07,1.04,0,.55-.47,1.02-1.03,1.03-.58.02-1.08-.45-1.09-1.02-.01-.58.46-1.05,1.06-1.05Z"/>
      </g>
    </g>
  </g>
</svg>