<?xml version="1.0" encoding="UTF-8"?>
<svg id="Vrstva_2" data-name="Vrstva 2" xmlns="http://www.w3.org/2000/svg" viewBox="0 0 32.13 32.13">
  <defs>
    <style>
      .cls-1 {
        stroke-width: 0px;
      }
    </style>
  </defs>
  <g id="Vrstva_1-2" data-name="Vrstva 1">
    <g>
      <path class="cls-1" d="m16.07,32.13C7.21,32.13,0,24.92,0,16.07S7.21,0,16.07,0s16.07,7.21,16.07,16.07-7.21,16.07-16.07,16.07Zm0-30.13c-7.76,0-14.07,6.31-14.07,14.07s6.31,14.07,14.07,14.07,14.07-6.31,14.07-14.07S23.82,2,16.07,2Z"/>
      <path class="cls-1" d="m19.36,13.55h0c-.25-.1-.51-.14-.76-.14h0s-1.53,0-1.53,0l1.66-4.4c.43-1.13-.14-2.4-1.28-2.83-1.13-.43-2.4.14-2.83,1.28l-3.14,8.3c-.43,1.13.14,2.4,1.28,2.83h0c.25.1.51.14.76.14h0s1.53,0,1.53,0l-1.66,4.4c-.43,1.13.14,2.4,1.28,2.83h0c1.13.43,2.4-.14,2.83-1.28l3.14-8.3c.43-1.13-.14-2.4-1.28-2.83Z"/>
    </g>
  </g>
</svg>